<svg width="20" height="20" viewBox="0 0 20 20" fill="none" xmlns="http://www.w3.org/2000/svg">
    <path fill-rule="evenodd" clip-rule="evenodd" d="M9.16601 3.33335C5.94435 3.33335 3.33268 5.94503 3.33268 9.16669C3.33268 12.3883 5.94435 15 9.16601 15C12.3877 15 14.9993 12.3883 14.9993 9.16669C14.9993 5.94503 12.3877 3.33335 9.16601 3.33335ZM1.66602 9.16669C1.66602 5.02455 5.02388 1.66669 9.16601 1.66669C13.3082 1.66669 16.666 5.02455 16.666 9.16669C16.666 13.3088 13.3082 16.6667 9.16601 16.6667C5.02388 16.6667 1.66602 13.3088 1.66602 9.16669Z" fill="black"/>
    <path fill-rule="evenodd" clip-rule="evenodd" d="M13.2851 13.2858C13.6105 12.9603 14.1382 12.9603 14.4636 13.2858L18.0886 16.9108C18.414 17.2362 18.414 17.7638 18.0886 18.0893C17.7632 18.4147 17.2355 18.4147 16.9101 18.0893L13.2851 14.4643C12.9597 14.1388 12.9597 13.6112 13.2851 13.2858Z" fill="black"/>
</svg>
